<?xml version="1.0" encoding="utf-8"?>
<svg version="1.1" id="Layer_1" xmlns="http://www.w3.org/2000/svg" xmlns:xlink="http://www.w3.org/1999/xlink" x="0px" y="0px"
	 viewBox="0 0 500 500" enable-background="new 0 0 500 500" xml:space="preserve">
<rect x="27.19" fill="#E64011" width="442.57" height="500"/>
<g>
	<polygon fill="#FFFFFF" points="152.28,245.66 166.49,233.79 204.61,282.82 205.59,283.88 227,283.88 222.91,279.46 178.9,224.33 
		221.68,186.19 227.22,181.51 205.83,181.51 204.86,182.31 152.28,228.76 152.28,181.51 134.98,181.51 134.98,283.88 152.28,283.88 
			"/>
	<path fill="#FFFFFF" d="M210.28,346.94c0,21.37-8.2,31.48-29.21,31.48c-21.07,0-29.27-10.11-29.27-31.48v-56.57h-16.83v61.72
		c0,25.73,16.35,41.67,46.1,41.67c29.7,0,46.05-15.94,46.05-41.67v-48.58h30.73v90.24h17.14v-90.24h29.47v90.24h17.11v-90.24h24.4
		v-13.15H210.28V346.94z"/>
	<polygon fill="#FFFFFF" points="323.6,183.3 290.22,262.38 256.3,183.28 255.5,181.5 233.74,181.5 233.74,283.88 250.85,283.88 
		250.85,211.2 281.89,282.09 282.67,283.88 297.22,283.88 298,282.09 328.87,211.27 328.87,283.88 346,283.88 346,181.5 
		324.39,181.5 	"/>
	<g>
		<path fill="#FFFFFF" d="M331.98,75.37c0,3.91-3.16,7.07-7.04,7.07c-3.89,0-7.04-3.17-7.04-7.07c0-3.91,3.16-7.08,7.04-7.08
			C328.82,68.29,331.98,71.46,331.98,75.37"/>
		<path fill="#FFFFFF" d="M331.98,96.6c0,3.91-3.16,7.07-7.04,7.07c-3.89,0-7.04-3.17-7.04-7.07c0-3.91,3.16-7.08,7.04-7.08
			C328.82,89.52,331.98,92.69,331.98,96.6"/>
		<path fill="#FFFFFF" d="M331.98,139.05c0,3.91-3.16,7.08-7.04,7.08c-3.89,0-7.04-3.17-7.04-7.08c0-3.91,3.16-7.08,7.04-7.08
			C328.82,131.97,331.98,135.14,331.98,139.05"/>
		<path fill="#FFFFFF" d="M331.98,160.28c0,3.91-3.16,7.07-7.04,7.07c-3.89,0-7.04-3.16-7.04-7.07c0-3.91,3.16-7.08,7.04-7.08
			C328.82,153.2,331.98,156.37,331.98,160.28"/>
		<path fill="#FFFFFF" d="M332.04,117.82c0,3.91-3.17,7.07-7.08,7.07c-3.91,0-7.07-3.16-7.07-7.07c0-3.91,3.16-7.08,7.07-7.08
			C328.87,110.75,332.04,113.91,332.04,117.82"/>
		<path fill="#FFFFFF" d="M310.94,117.82c0,3.91-3.18,7.07-7.08,7.07c-3.92,0-7.07-3.16-7.07-7.07c0-3.91,3.15-7.08,7.07-7.08
			C307.76,110.75,310.94,113.91,310.94,117.82"/>
		<path fill="#FFFFFF" d="M289.82,117.82c0,3.91-3.17,7.07-7.08,7.07c-3.91,0-7.07-3.16-7.07-7.07c0-3.91,3.16-7.08,7.07-7.08
			C286.65,110.75,289.82,113.91,289.82,117.82"/>
		<path fill="#FFFFFF" d="M374.26,117.82c0,3.91-3.16,7.07-7.07,7.07s-7.08-3.16-7.08-7.07c0-3.91,3.17-7.08,7.08-7.08
			S374.26,113.91,374.26,117.82"/>
		<path fill="#FFFFFF" d="M374.26,139.05c0,3.91-3.16,7.08-7.07,7.08s-7.08-3.17-7.08-7.08c0-3.91,3.17-7.07,7.08-7.07
			S374.26,135.14,374.26,139.05"/>
		<path fill="#FFFFFF" d="M353.14,117.82c0,3.91-3.16,7.07-7.07,7.07s-7.08-3.16-7.08-7.07c0-3.91,3.17-7.08,7.08-7.08
			S353.14,113.91,353.14,117.82"/>
		<path fill="#FFFFFF" d="M395.36,160.28c0,3.91-3.16,7.07-7.06,7.07c-3.91,0-7.08-3.16-7.08-7.07c0-3.91,3.17-7.08,7.08-7.08
			C392.2,153.2,395.36,156.37,395.36,160.28"/>
		<path fill="#FFFFFF" d="M374.26,160.28c0,3.91-3.16,7.07-7.07,7.07s-7.08-3.16-7.08-7.07c0-3.91,3.17-7.08,7.08-7.08
			S374.26,156.37,374.26,160.28"/>
		<path fill="#FFFFFF" d="M353.14,160.28c0,3.91-3.16,7.07-7.07,7.07s-7.08-3.16-7.08-7.07c0-3.91,3.17-7.08,7.08-7.08
			S353.14,156.37,353.14,160.28"/>
		<path fill="#FFFFFF" d="M416.47,160.28c0,3.91-3.17,7.07-7.08,7.07c-3.91,0-7.07-3.16-7.07-7.07c0-3.91,3.16-7.08,7.07-7.08
			C413.3,153.2,416.47,156.37,416.47,160.28"/>
		<path fill="#FFFFFF" d="M374.26,181.5c0,3.91-3.16,7.07-7.07,7.07s-7.08-3.16-7.08-7.07c0-3.91,3.17-7.07,7.08-7.07
			S374.26,177.59,374.26,181.5"/>
		<path fill="#FFFFFF" d="M374.26,202.73c0,3.91-3.16,7.07-7.07,7.07s-7.08-3.16-7.08-7.07c0-3.91,3.17-7.08,7.08-7.08
			S374.26,198.82,374.26,202.73"/>
	</g>
</g>
</svg>
