<?xml version="1.0" encoding="utf-8"?>
<svg version="1.1" id="Layer_1" xmlns="http://www.w3.org/2000/svg" xmlns:xlink="http://www.w3.org/1999/xlink" x="0px" y="0px"
	 viewBox="0 0 500 500" style="enable-background:new 0 0 500 500;" xml:space="preserve">
<g>
	<g>
		<path style="fill:#0F6BD8;" d="M125.44,124.56c-0.15,0.15-0.3,0.3-0.44,0.44c0.11-0.13,0.24-0.25,0.37-0.38
			C125.39,124.59,125.41,124.58,125.44,124.56z"/>
		<path style="fill:#0F6BD8;" d="M500,0v62.5l-44.75,44.75l-52.93,52.94c-7.6-12.87-16.8-24.69-27.31-35.21L500,0z"/>
		<path style="fill:#0F6BD8;" d="M392.75,44.75l-52.94,52.93c-13.62-8.04-28.39-14.31-44.03-18.48c-14.6-3.91-29.94-5.99-45.78-5.99
			c-48.36,0-92.17,19.41-124.09,50.91c-0.17,0.14-0.32,0.3-0.48,0.45c-0.03,0.01-0.04,0.03-0.07,0.06
			c-0.13,0.13-0.25,0.25-0.37,0.38c-0.14,0.13-0.25,0.24-0.38,0.37l-0.06,0.06c-0.01,0.01-0.01,0.01-0.03,0.03
			C92.82,157.42,73.22,201.41,73.22,250c0,15.84,2.08,31.19,5.99,45.79c4.17,15.63,10.44,30.4,18.48,44l-52.94,52.96
			C16.54,352.29,0,303.08,0,250.01V250c0-38.58,8.74-75.12,24.34-107.74c12.33-25.76,28.92-49.08,48.88-69.04
			c19.96-19.96,43.27-36.56,69.04-48.88C174.88,8.74,211.42,0,250,0h0.01C303.08,0,352.29,16.54,392.75,44.75z"/>
		<path style="fill:#0F6BD8;" d="M125.44,124.56c-0.15,0.15-0.3,0.3-0.44,0.44c0.11-0.13,0.24-0.25,0.37-0.38
			C125.39,124.59,125.41,124.58,125.44,124.56z"/>
		<path style="fill:#0F6BD8;" d="M500,250c0,38.58-8.74,75.12-24.34,107.74c-12.33,25.76-28.92,49.08-48.88,69.04
			c-19.96,19.96-43.27,36.56-69.04,48.88C325.12,491.26,288.58,500,250,500h-0.01c-19.31,0-38.1-2.19-56.15-6.32
			c-16.25-3.74-31.89-9.05-46.74-15.77c-14.03-6.34-27.35-13.94-39.84-22.66c-12.19-8.47-23.57-18.02-34.03-28.47L125,375
			c10.51,10.51,22.33,19.7,35.21,27.31c13.6,8.04,28.38,14.31,44,18.48c14.6,3.91,29.95,5.99,45.79,5.99
			c3.72,0,7.41-0.11,11.07-0.35c43.67-2.68,83.02-21.24,112.44-49.94c0.38-0.37,0.74-0.74,1.12-1.11c0.13-0.13,0.24-0.24,0.37-0.38
			c0.13-0.11,0.25-0.24,0.38-0.37c0.38-0.38,0.74-0.76,1.12-1.14L500,250z"/>
		<path style="fill:#0F6BD8;" d="M125.44,124.56c-0.15,0.15-0.3,0.3-0.44,0.44c0.11-0.13,0.24-0.25,0.37-0.38
			C125.39,124.59,125.41,124.58,125.44,124.56z"/>
		<path style="fill:#0F6BD8;" d="M500,125v62.5l-6.32,6.32v0.01l-28.87,28.85l-38.37,38.37c0.24-3.65,0.35-7.35,0.35-11.06
			c0-15.84-2.08-31.17-5.99-45.78l-0.01-0.01l57.12-57.12L500,125z"/>
		<path style="fill:#0F6BD8;" d="M125.44,124.56c-0.15,0.15-0.3,0.3-0.44,0.44c0.11-0.13,0.24-0.25,0.37-0.38
			C125.39,124.59,125.41,124.58,125.44,124.56z"/>
	</g>
</g>
</svg>
