<?xml version="1.0" encoding="utf-8"?>
<svg version="1.1" id="Layer_1" xmlns="http://www.w3.org/2000/svg" xmlns:xlink="http://www.w3.org/1999/xlink" x="0px" y="0px"
	 viewBox="0 0 500 500" enable-background="new 0 0 500 500" xml:space="preserve">
<g>
	<rect fill="#0F6BD8" width="500" height="500"/>
	<g>
		<path fill="#FFFFFF" d="M187.72,187.28c-0.08,0.08-0.15,0.15-0.22,0.22c0.06-0.06,0.12-0.13,0.18-0.19
			C187.7,187.3,187.7,187.29,187.72,187.28z"/>
		<path fill="#FFFFFF" d="M375,125v31.25l-22.37,22.37l-26.46,26.47c-3.8-6.44-8.4-12.35-13.65-17.6L375,125z"/>
		<path fill="#FFFFFF" d="M321.38,147.37l-26.47,26.46c-6.81-4.02-14.19-7.15-22.02-9.24c-7.3-1.95-14.97-2.99-22.89-2.99
			c-24.18,0-46.08,9.7-62.04,25.45c-0.08,0.07-0.16,0.15-0.24,0.22c-0.01,0.01-0.02,0.01-0.04,0.03c-0.06,0.06-0.13,0.13-0.18,0.19
			c-0.07,0.06-0.13,0.12-0.19,0.18l-0.03,0.03c-0.01,0.01-0.01,0.01-0.01,0.01c-15.86,15.99-25.66,37.98-25.66,62.28
			c0,7.92,1.04,15.59,2.99,22.89c2.09,7.81,5.22,15.2,9.24,22l-26.47,26.48c-14.1-20.23-22.37-44.83-22.37-71.37V250
			c0-19.29,4.37-37.56,12.17-53.87c6.16-12.88,14.46-24.54,24.44-34.52c9.98-9.98,21.64-18.28,34.52-24.44
			C212.44,129.37,230.71,125,250,125h0.01C276.54,125,301.14,133.27,321.38,147.37z"/>
		<path fill="#FFFFFF" d="M187.72,187.28c-0.08,0.08-0.15,0.15-0.22,0.22c0.06-0.06,0.12-0.13,0.18-0.19
			C187.7,187.3,187.7,187.29,187.72,187.28z"/>
		<path fill="#FFFFFF" d="M375,250c0,19.29-4.37,37.56-12.17,53.87c-6.16,12.88-14.46,24.54-24.44,34.52
			c-9.98,9.98-21.64,18.28-34.52,24.44C287.56,370.63,269.29,375,250,375h-0.01c-9.66,0-19.05-1.1-28.07-3.16
			c-8.12-1.87-15.94-4.53-23.37-7.88c-7.01-3.17-13.67-6.97-19.92-11.33c-6.09-4.24-11.78-9.01-17.01-14.24l25.89-25.89
			c5.26,5.26,11.17,9.85,17.6,13.65c6.8,4.02,14.19,7.15,22,9.24c7.3,1.95,14.97,2.99,22.89,2.99c1.86,0,3.7-0.06,5.54-0.18
			c21.83-1.34,41.51-10.62,56.22-24.97c0.19-0.18,0.37-0.37,0.56-0.56c0.06-0.06,0.12-0.12,0.18-0.19c0.06-0.06,0.13-0.12,0.19-0.18
			c0.19-0.19,0.37-0.38,0.56-0.57L375,250z"/>
		<path fill="#FFFFFF" d="M187.72,187.28c-0.08,0.08-0.15,0.15-0.22,0.22c0.06-0.06,0.12-0.13,0.18-0.19
			C187.7,187.3,187.7,187.29,187.72,187.28z"/>
		<path fill="#FFFFFF" d="M375,187.5v31.25l-3.16,3.16v0.01l-14.43,14.43l-19.18,19.18c0.12-1.83,0.18-3.68,0.18-5.53
			c0-7.92-1.04-15.59-2.99-22.89l-0.01-0.01l28.56-28.56L375,187.5z"/>
		<path fill="#FFFFFF" d="M187.72,187.28c-0.08,0.08-0.15,0.15-0.22,0.22c0.06-0.06,0.12-0.13,0.18-0.19
			C187.7,187.3,187.7,187.29,187.72,187.28z"/>
	</g>
</g>
</svg>
